<svg xmlns="http://www.w3.org/2000/svg" viewBox="0 0 24 24" fill="none" stroke="currentColor" stroke-width="1.5" stroke-linecap="round" stroke-linejoin="round">
  <!-- folder body -->
  <path d="M3 8a2 2 0 0 1 2-2h3.17a2 2 0 0 1 1.42.59L10.83 7.8A2 2 0 0 0 12.24 8.4H19a2 2 0 0 1 2 2v7a2 2 0 0 1-2 2H5a2 2 0 0 1-2-2V8z"/>
  <!-- git branch: two nodes connected with a curve -->
  <circle cx="9" cy="14" r="1.4" fill="currentColor" stroke="none"/>
  <circle cx="15" cy="12" r="1.4" fill="currentColor" stroke="none"/>
  <path d="M9 14 Q9 12 15 12" stroke-width="1.2"/>
</svg>
